<?xml version="1.0" encoding="UTF-8" standalone="no"?>
<svg
   viewBox="0 0 60 60"
   version="1.1"
   id="svg63"
   sodipodi:docname="sort-icon.svg"
   inkscape:version="1.2.1 (9c6d41e4, 2022-07-14)"
   xmlns:inkscape="http://www.inkscape.org/namespaces/inkscape"
   xmlns:sodipodi="http://sodipodi.sourceforge.net/DTD/sodipodi-0.dtd"
   xmlns="http://www.w3.org/2000/svg"
   xmlns:svg="http://www.w3.org/2000/svg">
  <defs
     id="defs67" />
  <sodipodi:namedview
     id="namedview65"
     pagecolor="#ffffff"
     bordercolor="#000000"
     borderopacity="0.25"
     inkscape:showpageshadow="2"
     inkscape:pageopacity="0.0"
     inkscape:pagecheckerboard="0"
     inkscape:deskcolor="#d1d1d1"
     showgrid="false"
     inkscape:zoom="14.15"
     inkscape:cx="30.035336"
     inkscape:cy="30.070671"
     inkscape:window-width="1390"
     inkscape:window-height="1027"
     inkscape:window-x="0"
     inkscape:window-y="25"
     inkscape:window-maximized="0"
     inkscape:current-layer="svg63" />
  <path
     transform="translate(.71978,.35989)"
     d="m43.187 46.684v-39.948"
     fill="none"
     stroke="#333"
     stroke-linecap="round"
     stroke-linejoin="round"
     stroke-width="5"
     id="path55" />
  <path
     transform="matrix(2.7241 0 0 2.7241 -2.5857 -12.84)"
     d="m3.87431,13.06822 1.875-5.09766c.16797-.44922.30664-.78125.41602-.99609 .10938-.21875.25977-.40234.45117-.55078s.44141-.22852.75-.22852c.31641,0 .57227.07617.76758.22852s.35547.34375.46875.57422c.11719.22656.25391.55078.41016.97266l1.86914,5.09766c.11719.30859.19336.54688.22852.71484 .03906.16406.05859.33008.05859.49805 0,.24219-.08594.4375-.25781.58594-.16797.14453-.39258.2168-.67383.2168-.19531,0-.35937-.03906-.49219-.11719s-.24023-.1875-.32227-.32813-.14844-.3125-.21094-.51563l-.23438-.76758h-3.19336l-.24023.76758c-.10156.31641-.22461.55664-.36914.7207s-.35742.24023-.65039.24023c-.27734,0-.50391-.07227-.67969-.2168-.17188-.14844-.25781-.34375-.25781-.58594 0-.14453.01563-.29492.04688-.45117 .03516-.16016.11523-.41406.24023-.76172zm4.52344-1.53516-.97266-3.1582h-.02344l-1.04297,3.1582h2.03906z"
     fill="#333"
     id="path57" />
  <path
     transform="matrix(2.7241 0 0 2.7241 -32.817 -59.626)"
     d="m17.49436,40.90293h3.16406c.33203,0 .58594.08203.76172.24609s.26953.38086.26953.66211-.08789.50391-.26367.66797-.43164.24609-.76758.24609h-4.30664c-.48828,0-.83984-.0918-1.05469-.27539-.21094-.1875-.31641-.45508-.31641-.80273 0-.14844.02344-.27539.07031-.38086s.14453-.27148.29297-.48633l3.67383-4.94531h-2.87109c-.32813,0-.58203-.07813-.76172-.23438s-.26953-.36523-.26953-.62695c0-.17188.03906-.32422.11719-.45703s.19531-.23633.35156-.31055 .34766-.11133.5625-.11133h4.17773c.3125,0 .55859.05469.73828.16406s.29883.23242.35742.38086c.0625.14453.09375.29102.09375.43945 0,.125-.03516.26563-.10547.42188s-.16602.32227-.28711.49805-.29492.41797-.52148.72656l-3.10547,4.17773z"
     fill="#7f7f7f"
     id="path59" />
  <path
     transform="matrix(-2.5885e-17 -1 1 -2.5885e-17 36.451 71.157)"
     d="m28.413-2.3411-12.919 9.2812 12.611 10.312 0.30865-19.594z"
     fill="#b3b3b3"
     fill-rule="evenodd"
     stroke="#333"
     stroke-linecap="round"
     stroke-linejoin="round"
     stroke-width="3.712"
     id="path61" />
  <path
     style="fill:#6c5353;fill-opacity:0;stroke-width:0.0706714"
     d="m 43.201334,52.144656 c -1.295014,-1.772114 -5.32964,-7.423985 -5.31049,-7.439154 0.02871,-0.02274 11.212658,0.156977 11.587848,0.186208 l 0.256078,0.01995 -3.049547,3.726331 c -1.67725,2.049481 -3.085141,3.761927 -3.128648,3.805433 -0.05836,0.05836 -0.151527,-0.02 -0.355241,-0.298768 z"
     id="path861" />
  <path
     style="fill:#b3b3b3;fill-opacity:1;stroke-width:0.0706714"
     d="m 43.201334,52.144656 c -1.295014,-1.772114 -5.32964,-7.423985 -5.31049,-7.439154 0.02871,-0.02274 11.212658,0.156977 11.587848,0.186208 l 0.256078,0.01995 -3.049547,3.726331 c -1.67725,2.049481 -3.085141,3.761927 -3.128648,3.805433 -0.05836,0.05836 -0.151527,-0.02 -0.355241,-0.298768 z"
     id="path932" />
  <path
     style="fill:#7f7f7f;fill-opacity:1;stroke-width:0.0706714"
     d="M 10.791015,56.673324 C 9.7875094,56.543041 9.1922013,56.286542 8.7188583,55.7805 8.2453083,55.274237 8.0700892,54.768684 8.0625665,53.886926 c -0.00534,-0.625981 0.015591,-0.752842 0.1832307,-1.110505 0.3145137,-0.671022 0.632328,-1.112804 5.8103638,-8.076774 l 4.992009,-6.713781 -4.365074,-0.0369 C 9.8812865,37.908384 9.9361033,37.91336 9.3121331,37.461359 8.6867075,37.008303 8.4234592,36.470979 8.41963,35.639644 8.4172165,35.115656 8.4402931,35.014513 8.6607774,34.582707 8.938543,34.03872 9.276631,33.741895 9.9093773,33.486497 l 0.4086437,-0.164942 6.325089,-0.02046 c 4.40771,-0.01426 6.467608,0.0034 6.795236,0.05823 1.006776,0.168501 1.817048,0.751958 2.10202,1.513615 0.320337,0.856178 0.261705,1.515724 -0.219864,2.473191 -0.417631,0.830347 -0.962275,1.58663 -6.61896,9.190973 l -3.890232,5.229682 4.679151,0.03866 c 4.112178,0.03397 4.721967,0.05294 5.032507,0.156536 1.093445,0.364763 1.683327,1.160796 1.688284,2.278303 0.0033,0.733412 -0.156019,1.19926 -0.565889,1.655134 -0.382976,0.425962 -0.902382,0.686264 -1.558712,0.781154 -0.584007,0.08443 -12.642958,0.08149 -13.295636,-0.0032 z"
     id="path2438" />
  <path
     style="fill:#7f7f7f;fill-opacity:1;stroke-width:0.0706714"
     d="M 8.8642649,28.101246 C 8.1407025,27.906153 7.5597642,27.403845 7.3517952,26.793489 7.2146107,26.390874 7.2135522,25.582255 7.349349,24.92482 c 0.1579114,-0.764498 0.4961082,-1.722959 3.246412,-9.200438 2.728112,-7.4171462 3.14664,-8.5104125 3.618087,-9.451072 0.425944,-0.8498676 1.061925,-1.5192744 1.7811,-1.8747104 l 0.534824,-0.264324 0.957729,0.00229 c 1.122502,0.00269 1.470818,0.1059665 2.143622,0.6356201 0.71915,0.5661379 1.199618,1.3473774 1.88951,3.0723364 0.698035,1.7453205 5.933141,16.1345929 6.080809,16.7137809 0.223907,0.878218 0.233706,1.916945 0.02239,2.373808 -0.358011,0.774028 -1.072431,1.195561 -2.119037,1.250306 -1.077179,0.05634 -1.78294,-0.269819 -2.293656,-1.059995 C 22.886286,26.61981 22.755925,26.284778 22.27531,24.717313 L 21.912355,23.533569 H 17.527218 13.142081 L 12.666666,25 c -0.834367,2.573633 -1.418167,3.206722 -2.9445106,3.19311 -0.294182,-0.0026 -0.6802326,-0.04396 -0.8578905,-0.09186 z M 20.290881,18.462898 C 19.44418,15.606863 17.659685,9.965318 17.60354,9.9670748 c -0.06454,0.00202 -2.882796,8.4078362 -2.872123,8.5664942 0.002,0.02915 1.261892,0.053 2.799847,0.053 2.629979,0 2.794101,-0.0074 2.759617,-0.123674 z"
     id="path2440" />
  <path
     style="fill:#7f7f7f;fill-opacity:0;stroke-width:0.0706714"
     d="m 41.975557,50.447388 c -3.468935,-4.834035 -4.120354,-5.746403 -4.108362,-5.754113 0.02319,-0.01491 11.315455,0.178523 11.595319,0.198621 l 0.275234,0.01976 -3.09266,3.780919 c -1.700962,2.079505 -3.114263,3.789355 -3.140667,3.799667 -0.0264,0.01031 -0.714393,-0.909875 -1.528864,-2.044859 z"
     id="path2442" />
  <path
     style="fill:#ffffff;fill-opacity:0;stroke-width:0.0706714"
     d="m 41.975557,50.447388 c -3.468935,-4.834035 -4.120354,-5.746403 -4.108362,-5.754113 0.02319,-0.01491 11.315455,0.178523 11.595319,0.198621 l 0.275234,0.01976 -3.09266,3.780919 c -1.700962,2.079505 -3.114263,3.789355 -3.140667,3.799667 -0.0264,0.01031 -0.714393,-0.909875 -1.528864,-2.044859 z"
     id="path864" />
  <path
     style="fill:#000000;fill-opacity:1;stroke-width:0.0706714"
     d="m 41.975557,50.447388 c -3.468935,-4.834035 -4.120354,-5.746403 -4.108362,-5.754113 0.02319,-0.01491 11.315455,0.178523 11.595319,0.198621 l 0.275234,0.01976 -3.09266,3.780919 c -1.700962,2.079505 -3.114263,3.789355 -3.140667,3.799667 -0.0264,0.01031 -0.714393,-0.909875 -1.528864,-2.044859 z"
     id="path1694" />
  <path
     style="fill:#ffffff;fill-opacity:0;stroke-width:0.0706714"
     d="M 8.5929196,27.955864 C 7.8047119,27.624799 7.3687766,27.037947 7.2997891,26.215065 7.20368,25.068676 7.2936187,24.791746 11.234751,14.09894 13.796568,7.1483951 14.129278,6.333104 14.730008,5.5339559 15.088939,5.0564717 15.604204,4.6343499 16.180441,4.3457137 16.556636,4.157278 16.589509,4.1533929 17.558533,4.182842 c 0.878863,0.026709 1.038086,0.050987 1.388438,0.2117085 0.560192,0.2569835 1.304402,0.9836285 1.680336,1.6406771 0.580236,1.0141207 1.131893,2.4444864 4.213851,10.9259034 2.926189,8.052745 2.872137,7.88535 2.875314,8.904593 0.0024,0.784782 -0.09302,1.111513 -0.439897,1.50559 -0.436782,0.49621 -0.920634,0.70014 -1.756701,0.7404 -0.856254,0.04123 -1.331216,-0.08101 -1.768246,-0.455091 -0.586115,-0.501692 -0.905877,-1.16915 -1.492791,-3.115987 l -0.303602,-1.007067 h -4.448076 c -3.835828,0 -4.442718,0.01396 -4.40915,0.101441 0.02141,0.05579 0.01451,0.111447 -0.01534,0.123675 -0.02985,0.01223 -0.232092,0.549155 -0.449431,1.193171 -0.637864,1.890103 -1.019291,2.565175 -1.663248,2.943712 -0.305092,0.179344 -0.404168,0.198008 -1.1466674,0.216018 -0.7316995,0.01775 -0.8543602,0.0022 -1.230403,-0.155722 z M 20.306387,18.533569 c 0.04635,-0.07667 -1.081098,-3.723371 -1.159884,-3.751619 -0.03636,-0.01304 -0.04861,-0.05201 -0.02723,-0.08662 0.03439,-0.05565 -0.981625,-3.385734 -1.08757,-3.564593 -0.02302,-0.03887 -0.04837,-0.113705 -0.05633,-0.166301 -0.008,-0.0526 -0.08602,-0.2983 -0.173468,-0.546007 -0.1726,-0.4889088 -0.28717,-0.5117506 -0.390541,-0.07786 -0.02946,0.12364 -0.05933,0.248651 -0.06638,0.277803 -0.0071,0.02915 -0.02078,0.0689 -0.03049,0.08834 -0.0097,0.01943 -0.02562,0.06714 -0.03534,0.106007 -0.0097,0.03887 -0.02562,0.08657 -0.03534,0.106007 -0.0097,0.01943 -0.02357,0.05919 -0.0308,0.08834 -0.0072,0.02915 -0.06189,0.164311 -0.121493,0.300353 -0.243307,0.555363 -2.255885,6.718627 -2.215346,6.78422 0.0241,0.039 0.0067,0.0709 -0.03858,0.0709 -0.04532,0 -0.0641,0.0477 -0.04172,0.106007 0.02237,0.0583 0.0099,0.106007 -0.02778,0.106007 -0.03765,0 -0.06845,0.0477 -0.06845,0.106007 0,0.09244 0.356819,0.106007 2.787348,0.106007 1.533042,0 2.801768,-0.02385 2.819392,-0.053 z"
     id="path2555" />
  <path
     style="fill:#7f7f7f;fill-opacity:1;stroke-width:0.0706714"
     d="m 42.644876,57.308942 c -0.158393,-0.07691 -0.400879,-0.258191 -0.538858,-0.402838 -0.249729,-0.261796 -9.345685,-12.895473 -9.62649,-13.370552 -0.197908,-0.334831 -0.205836,-1.192991 -0.01438,-1.556753 0.18101,-0.343919 0.522114,-0.6912 0.85641,-0.871918 0.279349,-0.151014 0.32022,-0.152604 3.462897,-0.134721 1.749117,0.01 3.506184,0.03686 3.904594,0.0598 l 0.724382,0.04171 V 24.080051 c 0,-11.199852 0.02445,-17.1225644 0.07172,-17.3718223 0.150284,-0.792444 0.672948,-1.4889031 1.377039,-1.8349259 0.304251,-0.1495234 0.451568,-0.1735505 1.06007,-0.1728957 0.626135,6.735e-4 0.747004,0.021994 1.060071,0.1869823 0.466919,0.2460697 0.91595,0.710015 1.151623,1.1898739 l 0.191133,0.3891678 0.01823,17.3321559 0.01823,17.332155 1.324526,0.0073 c 0.72849,0.004 2.469404,0.02867 3.868697,0.05477 2.894665,0.054 2.922671,0.0593 3.471217,0.657307 0.517708,0.564388 0.636742,1.372815 0.292754,1.988276 -0.233317,0.417449 -10.504042,12.976057 -10.835706,13.249442 -0.469152,0.386715 -1.293021,0.485811 -1.838159,0.221097 z m 4.131858,-8.647487 c 1.712646,-2.096624 3.106537,-3.819408 3.097537,-3.82841 -0.009,-0.009 -2.353653,-0.05077 -5.210337,-0.09281 -2.856683,-0.04205 -5.583545,-0.08735 -6.059694,-0.100674 -0.476148,-0.01333 -0.864851,-0.0053 -0.863783,0.01793 0.0011,0.02319 1.169796,1.665096 2.597173,3.648688 1.427378,1.983591 2.717309,3.776457 2.866513,3.984145 0.228142,0.317569 0.286181,0.362157 0.364984,0.280397 0.05154,-0.05347 1.49496,-1.812641 3.207607,-3.909264 z"
     id="path2557" />
</svg>
